<?xml version="1.0" encoding="utf-8"?>
<!-- Generator: Adobe Illustrator 25.3.1, SVG Export Plug-In . SVG Version: 6.00 Build 0)  -->
<svg version="1.1" id="Capa_1" xmlns="http://www.w3.org/2000/svg" xmlns:xlink="http://www.w3.org/1999/xlink" x="0px" y="0px"
	 viewBox="0 0 128 128" style="enable-background:new 0 0 128 128;" xml:space="preserve">
<style type="text/css">
	.st0{fill:#DC143C;}
	.st1{fill:#630018;}
	.st2{fill:#202020;}
	.st3{fill:#FFFFFF;}
</style>
<path class="st0" d="M27.9,116.4l-8-90.2h88.4l-8.1,90.2l-36.2,10L27.9,116.4z"/>
<path class="st1" d="M64,118.7l29.2-8.1l6.9-77.1H64V118.7z"/>
<path class="st2" d="M64,67H49.4l-1-11.3H64V44.6H36.3l0.3,3L39.2,78H64V67z M64,95.7L64,95.7l-12.4-3.3l-0.8-8.8H39.7l1.5,17.4
	l22.7,6.3l0.1,0L64,95.7z"/>
<path class="st3" d="M28,1.6h5.6v5.6h5.1V1.6h5.6v16.8h-5.6v-5.6h-5.1v5.6H28C28,18.4,28,1.6,28,1.6z M51.8,7.2h-5V1.6h15.5v5.6h-5
	v11.2h-5.6C51.8,18.4,51.8,7.2,51.8,7.2z M64.9,1.6h5.9l3.6,5.9l3.6-5.9h5.9v16.8h-5.6v-8.3l-3.9,6h-0.1l-3.9-6v8.3h-5.5L64.9,1.6
	L64.9,1.6z M86.6,1.6h5.6v11.3h7.9v5.6H86.6C86.6,18.5,86.6,1.6,86.6,1.6z"/>
<path class="st2" d="M64,67V78h13.6l-1.3,14.3L64,95.7v11.5l22.7-6.3l0.2-1.9l2.6-29.1l0.3-3h-3H64z M64,44.6v11.1h26.7l0.2-2.5
	l0.5-5.6l0.3-3H64z"/>
</svg>
