<?xml version="1.0" standalone="no"?>
<!DOCTYPE svg PUBLIC "-//W3C//DTD SVG 20010904//EN"
 "http://www.w3.org/TR/2001/REC-SVG-20010904/DTD/svg10.dtd">
<svg version="1.0" xmlns="http://www.w3.org/2000/svg"
 width="1280.000000pt" height="1280.000000pt" viewBox="0 0 1280.000000 1280.000000"
 preserveAspectRatio="xMidYMid meet" color="red">
<metadata>
Created by potrace 1.16, written by Peter Selinger 2001-2019
</metadata>
<g transform="translate(0.000000,1280.000000) scale(0.100000,-0.100000)"
fill="#000000" stroke="none">
<path d="M2800 11795 l0 -845 283 2 282 3 3 283 2 282 255 0 255 0 0 -285 0
-285 280 0 280 0 0 845 0 845 -280 0 -280 0 0 -280 0 -280 -255 0 -255 0 0
280 0 280 -285 0 -285 0 0 -845z"/>
<path d="M4687 12633 c-4 -3 -7 -129 -7 -280 l0 -273 250 0 250 0 0 -565 0
-565 283 2 282 3 3 563 2 562 245 0 245 0 0 280 0 280 -773 0 c-426 0 -777 -3
-780 -7z"/>
<path d="M6482 11798 l3 -843 275 0 275 0 5 408 5 408 186 -287 c102 -159 190
-289 195 -291 5 -1 92 126 193 282 101 157 187 288 192 291 5 3 9 -174 9 -405
l0 -411 280 0 280 0 0 845 0 845 -294 0 -294 0 -180 -295 -180 -296 -178 295
-179 295 -298 1 -297 0 2 -842z"/>
<path d="M8660 11795 l0 -845 675 0 675 0 0 280 0 280 -395 0 -395 0 0 565 0
565 -280 0 -280 0 0 -845z"/>
<path d="M1980 10164 c0 -45 800 -8997 804 -9002 6 -5 3596 -1002 3611 -1002
13 0 3616 998 3621 1003 4 3 804 8964 804 9001 l0 26 -4420 0 -4420 0 0 -26z
m7183 -1856 c-13 -137 -93 -1038 -93 -1051 0 -16 -144 -17 -2120 -17 l-2121 0
5 -32 c3 -18 27 -275 53 -570 l47 -538 2016 -2 2015 -3 -151 -1693 c-83 -930
-153 -1694 -155 -1695 -2 -2 -512 -144 -1133 -316 l-1128 -313 -1127 313
c-619 172 -1129 315 -1133 318 -7 6 -158 1645 -158 1709 l0 22 550 0 549 0 5
-32 c3 -18 21 -215 41 -438 19 -222 39 -407 43 -410 11 -9 1207 -330 1228
-330 24 1 1222 325 1230 333 5 4 132 1364 134 1429 0 5 -863 9 -1917 10
l-1917 3 -148 1645 c-81 905 -147 1655 -147 1668 l-1 22 2768 0 2768 0 -3 -32z"/>
</g>
</svg>
