<?xml version="1.0" encoding="utf-8"?>
<!-- Generator: Adobe Illustrator 25.3.1, SVG Export Plug-In . SVG Version: 6.00 Build 0)  -->
<svg version="1.1" id="Capa_1" xmlns="http://www.w3.org/2000/svg" xmlns:xlink="http://www.w3.org/1999/xlink" x="0px" y="0px"
	 viewBox="0 0 128 128" style="enable-background:new 0 0 128 128;" xml:space="preserve">
<style type="text/css">
	.st0{fill-rule:evenodd;clip-rule:evenodd;fill:#FFFFFF;}
	.st1{fill-rule:evenodd;clip-rule:evenodd;fill:#DC143C;}
	.st2{fill-rule:evenodd;clip-rule:evenodd;fill:#A9AA88;}
	.st3{fill-rule:evenodd;clip-rule:evenodd;fill:#B6B598;}
	.st4{fill-rule:evenodd;clip-rule:evenodd;fill:#C2C1A7;}
	.st5{fill-rule:evenodd;clip-rule:evenodd;fill:#CECDB7;}
	.st6{fill-rule:evenodd;clip-rule:evenodd;fill:#DBDAC7;}
	.st7{fill-rule:evenodd;clip-rule:evenodd;fill:#EBE9DC;}
	.st8{fill-rule:evenodd;clip-rule:evenodd;fill:#4FAA41;}
</style>
<path class="st0" d="M87.3,100.1c0.2-0.3,0.3-0.6,0.5-0.9C87.9,99,88,99,88.2,99c1.1,0,2.3,0.1,3.4,0.1c1,0,1.9,0,2.9,0
	c1.1,0,2.2-0.1,3.3,0c1.4,0,2.9,0.3,4.2,1c1.6,0.8,2.7,1.9,3.5,3.5c0.5,1,0.8,2,0.9,3.1c0.2,1.6,0.1,3.2-0.5,4.7
	c-0.6,1.9-1.8,3.4-3.5,4.5c-1.3,0.8-2.7,1.3-4.2,1.6c-1.6,0.3-3.2,0.2-4.8,0.2c-1.8,0-3.5,0-5.3-0.1c-0.3,0-0.4-0.1-0.3-0.4l0.1-0.3
	c0.2-0.5,0.3-0.6,0.8-0.7c0.4-0.1,0.8-0.2,1.1-0.4c0.2-0.1,0.3-0.4,0.3-0.7c0.1-0.2,0.1-0.4,0.1-0.7c0-3.4,0.1-6.8,0.1-10.3
	c0-0.9,0-1.7-0.1-2.6c0-0.6-0.4-1-1.1-1.2c-0.6-0.1-1.1-0.2-1.7-0.3L87.3,100.1L87.3,100.1z M103.3,108.4c-0.1-0.7-0.1-1.4-0.2-2
	c-0.3-1.6-1-3-2.2-4.1c-2-1.8-4.4-2.1-6.9-1.8c-0.6,0-0.7,0.2-0.7,0.8c0,0.8,0,1.7,0,2.5c0,2.7,0,5.3,0,8c0,0.8,0,1.5,0,2.3
	s0.3,1.4,1.1,1.7c1.2,0.5,2.5,0.5,3.7,0.3c2-0.3,3.4-1.5,4.3-3.2C103.1,111.5,103.3,110,103.3,108.4L103.3,108.4z M108.2,117.5
	c0-0.4,0.1-0.8,0.4-1.1c0.1-0.1,0.3-0.1,0.4-0.1l1.1-0.2c0.4-0.1,0.6-0.4,0.7-0.8c0-0.3,0.1-0.5,0.1-0.8c0-2.1,0-4.2,0.1-6.3
	c0-2.1,0-4.2,0-6.3v-0.4c0-0.7-0.4-1-1-1.1l-1.5-0.2c-0.2,0-0.2-0.1-0.2-0.3c0.1-0.3,0.2-0.6,0.4-0.8c0.1-0.1,0.3-0.1,0.4-0.1
	c0.7,0,1.4,0.1,2.1,0.1h6c1.2,0,2.3,0.2,3.3,0.8c1.1,0.6,1.8,1.6,2,2.8c0.2,1.4-0.2,2.5-1.2,3.4c-0.4,0.4-0.9,0.6-1.4,0.9l-0.2,0.1
	c0.4,0.2,0.9,0.3,1.3,0.5c1.2,0.5,2.1,1.2,2.6,2.5c0.4,1,0.4,2,0.2,3c-0.4,1.6-1.4,2.6-2.7,3.4c-1.3,0.7-2.6,1.2-4,1.2
	c-1.3,0.1-2.7,0-4,0.1h-0.8c-1.3,0-2.6-0.1-3.9-0.1L108.2,117.5L108.2,117.5z M113.7,111.4L113.7,111.4c0,0.7,0,1.3,0,2
	c0,0.4,0,0.9,0.1,1.3c0.1,0.6,0.4,1.2,1.1,1.3c0.9,0.2,1.9,0.3,2.8,0.1c1.2-0.2,2.1-0.8,2.6-1.9c0.4-0.8,0.4-1.7,0.3-2.6
	c-0.2-1.2-0.8-2.1-1.9-2.6c-0.7-0.4-1.4-0.6-2.2-0.6c-0.9,0-1.8,0-2.6-0.1c-0.2,0-0.3,0.1-0.3,0.3
	C113.7,109.5,113.7,110.5,113.7,111.4L113.7,111.4z M115.6,106.9c0.5,0,1,0,1.6-0.1c1-0.1,1.8-0.6,2.1-1.6c0.2-0.5,0.2-1,0.2-1.5
	c0-1.4-0.8-2.5-2.1-2.9c-1-0.4-2-0.4-3.1-0.3c-0.4,0-0.6,0.2-0.6,0.6l-0.1,5.5c0,0.2,0.1,0.3,0.3,0.3
	C114,106.9,115.6,106.9,115.6,106.9z"/>
<path class="st1" d="M10.5,116.4l-0.1,0.9c-0.7,0-1.3,0-1.9,0c-1.2,0-2.4,0-3.5,0H4.9c-0.2,0-0.5,0-0.5-0.1c-0.1-0.3,0-0.6,0-0.9
	c0,0,0.1-0.1,0.2-0.1l0.9-0.2c0.6-0.1,0.8-0.4,0.8-1c0-0.7,0.1-1.3,0.1-2c0-1.6,0-3.3,0-4.9c0-0.4-0.1-0.7-0.5-0.8
	c-0.4-0.2-0.9-0.4-1.3-0.5c-0.2-0.1-0.5-0.1-0.4-0.4c0-0.3,0.3-0.4,0.5-0.4c1-0.2,2-0.5,3-0.7c0.3-0.1,0.6-0.2,1-0.3
	c0,0.2,0.1,0.4,0.1,0.6l-0.1,0.9c0,0.1,0.1,0.2,0.1,0.3c0,0,0.2,0,0.3-0.1c0.9-0.7,1.8-1.2,2.8-1.5c1.6-0.5,3,0,3.9,1.3
	c0.3,0.5,0.3,0.5,0.8,0.1c0.8-0.6,1.6-1.1,2.6-1.4c2.1-0.7,4.1,0.2,4.8,2.3c0.3,0.8,0.4,1.5,0.4,2.3v5.3c0,0.4,0.1,0.7,0.6,0.8
	c0.5,0.2,1,0.3,1.5,0.4l-0.1,0.9c-0.6,0-1.1,0-1.7,0c-1.3,0-2.7,0-4,0.1c-0.2,0-0.3-0.1-0.3-0.3c0-0.7,0-0.7,0.6-0.9l0.2-0.1
	c0.6-0.2,0.9-0.4,0.9-1c0-1.9,0.1-3.8,0-5.6c-0.1-1.9-1.6-3-3.5-2.5c-0.6,0.2-1.2,0.4-1.7,0.8c-0.2,0.1-0.2,0.3-0.2,0.5
	c0.1,0.8,0.1,1.7,0.1,2.5c0,1.5,0,2.9,0,4.4c0,0.6,0.2,0.8,0.8,0.9l0.9,0.2h0.2c0,0.3,0,0.6,0,0.8c0,0.2-0.1,0.2-0.3,0.2
	c-0.8,0-1.7,0-2.5,0c-1,0-2,0-3.1,0h-0.2c0-0.3,0-0.6,0-0.9c0-0.1,0.1-0.2,0.2-0.2l1-0.2c0.4-0.1,0.6-0.3,0.7-0.8c0.1-2,0.2-4,0-6
	c0-0.4-0.2-0.8-0.3-1.1c-0.5-1.1-1.7-1.6-3-1.3c-0.6,0.2-1.2,0.5-1.8,0.8c-0.3,0.2-0.4,0.4-0.4,0.7c0,2,0,4,0,6v0.8
	c0,0.5,0.2,0.8,0.8,0.9C9.8,116.3,10.2,116.4,10.5,116.4L10.5,116.4z"/>
<path class="st1" d="M71,105.3c0.2,0.8,0.2,1.4-0.4,1.9s-1.2,0.3-1.9,0.2c0.1,0.4,0.1,0.7,0.2,1c0.2,2.3-0.7,4-2.9,5
	c-0.8,0.4-1.7,0.5-2.5,0.6c-0.4,0-0.8,0.4-0.9,0.7c0,0.4,0.2,0.7,0.6,0.8c0.5,0.1,1.1,0.2,1.6,0.2c1.2,0.1,2.4,0.2,3.5,0.4
	c1.8,0.3,2.7,1.8,2.4,3.6c-0.3,1.6-1.2,2.7-2.4,3.6c-2.1,1.5-4.5,1.9-7,1.2c-1.4-0.4-2.4-1.4-2.8-2.9c-0.2-0.8,0-1.4,0.6-2
	c0.7-0.6,1.4-1.2,2.1-1.7l0.2-0.2l-0.3-0.2c-0.7-0.3-1.3-0.8-1.5-1.6c-0.1-0.3,0-0.5,0.2-0.6c0.4-0.2,0.8-0.5,1.2-0.7
	c0.2-0.1,0.4-0.2,0.5-0.4c0.2-0.2,0.2-0.3-0.1-0.4c-0.7-0.2-1.2-0.6-1.7-1.1c-0.8-0.9-1-2-0.9-3.1c0.1-1.8,1.1-2.9,2.6-3.7
	c1.9-0.9,3.7-0.9,5.6-0.1c0.7,0.3,1.4,0.4,2.2,0.3C70.1,106,70.6,105.7,71,105.3L71,105.3z M64.2,118c-1.4,0-1.8,0.2-2.6,1
	c-0.9,0.9-0.9,2.2,0,3.2c0.7,0.7,1.6,1,2.5,1.1c1.1,0.1,2.2,0.1,3.3-0.5c1.1-0.6,1.6-1.7,1.4-2.9c-0.2-0.9-0.9-1.4-1.7-1.6
	C66,118,65,118,64.2,118z M61.4,109.1c0.1,0.4,0.1,0.8,0.2,1.2c0.2,1,0.7,1.8,1.6,2.3c1.1,0.5,2.6,0.3,3.1-1.3
	c0.3-1.1,0.3-2.2-0.1-3.3c-0.2-0.5-0.5-0.9-0.9-1.2c-1-0.7-2.8-0.8-3.5,0.7C61.5,108,61.4,108.5,61.4,109.1z"/>
<path class="st1" d="M47.3,105c0,0.2,0.1,0.4,0.1,0.6c0,0.4,0,0.7-0.1,1.1v0.3l0.3-0.2c0.9-0.7,1.8-1.3,2.9-1.6
	c1.9-0.6,3.9,0.5,4.5,2.5c0.2,0.8,0.3,1.5,0.3,2.3c0,1.7,0,3.5,0,5.2c0,0.6,0.1,0.7,0.7,0.9c0.3,0.1,0.7,0.2,1,0.2
	c0.2,0,0.3,0.1,0.3,0.3v0.2c0,0.7-0.1,0.8-0.8,0.8c-1.7,0-3.4,0-5,0c-0.5,0-0.5,0-0.6-0.5v-0.3c0-0.4,0-0.4,0.5-0.5
	c0.3,0,0.6-0.1,0.8-0.2c0.3-0.1,0.4-0.3,0.5-0.6c0-0.1,0-0.3,0-0.4c0-1.9,0-3.8-0.1-5.7c-0.1-1.5-1.3-2.5-2.8-2.4
	c-0.8,0.1-1.4,0.3-2.1,0.7c-0.4,0.3-0.5,0.7-0.5,1.2c0,1.8,0,3.6,0,5.4c0,0.4,0,0.8,0.1,1.2c0,0.4,0.2,0.6,0.6,0.7
	c0.4,0.1,0.8,0.1,1.2,0.2v0.3c0,0.8-0.1,0.8-0.8,0.8c-1.7,0-3.5,0-5.2,0c-0.3,0-0.4-0.1-0.4-0.3v-0.1c0-0.7,0-0.7,0.6-0.8l0.3-0.1
	c0.7-0.2,0.9-0.3,0.9-1.1c0-2.3,0-4.5,0.1-6.8c0-0.3-0.1-0.6-0.4-0.7c-0.4-0.2-0.9-0.4-1.3-0.5c-0.2-0.1-0.5-0.2-0.5-0.5
	c0-0.2,0.2-0.4,0.6-0.5c0.7-0.1,1.4-0.3,2-0.4C46,105.5,46.6,105.3,47.3,105z"/>
<path class="st1" d="M84.9,111c0,2.1-0.6,3.8-2.1,5.1c-1.9,1.6-4.9,2.2-7.3,1c-1-0.5-1.8-1.3-2.3-2.4c-0.8-1.6-0.9-3.3-0.6-5
	c0.4-1.7,1.4-2.9,3-3.7c1.6-0.8,3.3-1.1,5-0.7c2.2,0.5,3.8,2.4,4.1,4.7C84.8,110.3,84.8,110.8,84.9,111z M82.3,112.1L82.3,112.1
	c-0.1-0.2-0.1-0.4-0.1-0.6c-0.1-1.2-0.4-2.4-1.1-3.5c-0.7-1-1.6-1.6-2.8-1.7c-1.4-0.1-2.5,0.7-2.9,2.1c-0.6,2.1-0.4,4.1,0.7,6
	c0.5,0.8,1.1,1.4,2.1,1.8c1.8,0.6,3.4-0.2,3.8-2C82.1,113.5,82.2,112.8,82.3,112.1z"/>
<path class="st1" d="M40.8,111.1c0,1.5-0.4,2.9-1.3,4.2c-1,1.3-2.4,2-4,2.3c-1.9,0.3-3.6,0-5.1-1.2c-0.7-0.6-1.2-1.4-1.5-2.2
	c-0.5-1.4-0.7-2.9-0.3-4.4c0.3-1.6,1.2-2.8,2.6-3.6c1.6-0.9,3.3-1.4,5.2-0.9c2.4,0.5,3.8,2.1,4.3,4.4
	C40.8,110.2,40.8,110.7,40.8,111.1z M38.2,112.1L38.2,112.1l-0.1-0.3c0-1.4-0.3-2.7-1.1-3.9c-0.6-0.9-1.4-1.4-2.5-1.6
	c-1.7-0.2-2.9,0.8-3.2,2.2c-0.5,1.8-0.3,3.6,0.4,5.3c0.5,1.1,1.2,1.9,2.4,2.3c1.8,0.6,3.4-0.2,3.8-2
	C38.1,113.5,38.1,112.8,38.2,112.1z"/>
<path class="st0" d="M82.4,33.5c1.2,3.5,2.1,7.2,2.4,10.9c0.4,4.7,0.2,9.3-0.8,13.9l-0.1,0.4c-0.3,0-0.6,0-0.9,0
	c-2.5,0.4-5.1,0.8-7.6,1.2c-2.6,0.4-5.3,0.8-7.9,1.3c-0.9,0.2-2.1,0-2.5,1.3l-0.2,0.1l0.1-7.7l-0.1-18.5l1.2-0.2c2-0.3,4-0.7,6-1
	c2.4-0.4,4.8-0.7,7.2-1.1C80.2,33.9,81.3,33.7,82.4,33.5z"/>
<path class="st0" d="M62.3,84.9c-1.3-1.1-2.6-2.2-3.9-3.3C51.7,75.3,46.9,67.9,44.5,59c-0.7-2.5-1.1-4.9-1.2-7.5
	c-0.1-1.8-0.2-3.6-0.1-5.3c0.3-4.7,1-9.3,2.4-13.9l0.1-0.1c0.1,0.2,0.3,0.3,0.4,0.5c1.3,4,2.7,7.9,4,11.9
	c4.2,12.5,8.3,24.9,12.5,37.4c0.1,0.2,0.3,0.4,0.4,0.7C62.9,82.6,62.3,84.9,62.3,84.9z"/>
<path class="st0" d="M82.4,33.5c-1.1,0.2-2.1,0.3-3.2,0.5c-2.4,0.4-4.8,0.7-7.2,1.1c-2,0.3-4,0.7-6,1l-1.2,0.2v-0.8
	c0-0.7-0.1-1.3-0.1-2L64.5,21c0-2.6-0.1-5.2-0.1-7.9c0-1.6-0.1-3.3-0.1-4.9c0-0.9-0.2-1.7-0.2-2.6c0-0.5,0-1,0-1.5
	c0.6,1.2,1.2,2.4,1.9,3.6c1,1.9,2.6,3.3,4.1,4.8C75.7,18.6,79.8,25.6,82.4,33.5z"/>
<path class="st0" d="M64.8,62.5l0.2-0.1c0.4-1.3,1.5-1.1,2.5-1.3c2.6-0.5,5.3-0.9,7.9-1.3c2.5-0.4,5.1-0.8,7.6-1.2
	c0.3,0,0.6,0,0.9,0c-0.5,1.7-0.8,3.4-1.5,5.1c-0.7,1.9-1.5,3.7-2.4,5.5c-1.3,2.7-3,5.2-4.9,7.5c-1.5,1.8-3.1,3.4-4.7,5
	c-0.9,0.9-2,1.6-3,2.4L67.2,84l-0.9-0.8l-1-2.1c-0.7-2.5-1-5-1.1-7.5v-0.4l0.1-1.9c0-0.6,0.1-1.3,0.1-1.9
	C64.6,67.1,64.7,64.8,64.8,62.5L64.8,62.5z"/>
<path class="st0" d="M64.8,62.5c-0.1,2.3-0.2,4.6-0.3,6.8c0,0.6-0.1,1.3-0.1,1.9l-0.6,0.2c-1.3-3.8-2.6-7.6-3.9-11.4
	c-2.1-6.3-4.2-12.6-6.3-18.8c-1.7-5.1-3.4-10.1-5.1-15.2c-0.1-0.2-0.3-0.4-0.5-0.6l3.7-6.9c0.1,0.2,0.3,0.4,0.4,0.7
	c1.7,5.1,3.5,10.2,5.2,15.4c2.2,6.7,4.4,13.3,6.7,20c0.1,0.3,0.2,0.5,0.4,0.8l0.5-0.6C64.9,57.4,64.8,60,64.8,62.5L64.8,62.5z"/>
<path class="st0" d="M48.1,25.5c0.2,0.2,0.4,0.4,0.5,0.6c1.7,5.1,3.4,10.1,5.1,15.2c2.1,6.3,4.2,12.6,6.3,18.8
	c1.3,3.8,2.6,7.6,3.9,11.4l0.6-0.2l-0.1,1.9l-0.1,0.4c-0.2,2-0.4,4.1-0.6,6.1c-0.1,1-0.4,2-0.6,3c-0.2-0.2-0.4-0.4-0.4-0.7
	C58.3,69.5,54.1,57.1,50,44.6c-1.3-4-2.7-7.9-4-11.9c-0.1-0.2-0.3-0.4-0.4-0.5L48.1,25.5L48.1,25.5z"/>
<path class="st0" d="M64.9,54.8l-0.5,0.6c-0.1-0.3-0.3-0.5-0.4-0.8c-2.2-6.7-4.4-13.3-6.7-20c-1.7-5.1-3.4-10.2-5.2-15.4
	c-0.1-0.2-0.2-0.4-0.4-0.7l4.6-6.1c0.1,0.2,0.4,0.4,0.4,0.6c1.3,3.8,2.6,7.5,3.8,11.3c1.2,3.5,2.3,7,3.5,10.6
	c0.1,0.2,0.4,0.4,0.5,0.6v0.8L64.9,54.8z"/>
<path class="st0" d="M64.8,35.5c-0.2-0.2-0.5-0.4-0.5-0.6c-1.2-3.5-2.4-7-3.5-10.6c-1.3-3.8-2.5-7.5-3.8-11.3
	c-0.1-0.2-0.3-0.4-0.4-0.6c1.5-1.5,3-3,4.5-4.4c1.4-1.2,2.5-2.6,2.6-4.6L63.8,3l0.4,1c0,0.5-0.1,1,0,1.5c0.1,0.9,0.2,1.7,0.2,2.6
	c0.1,1.6,0.1,3.3,0.1,4.9c0.1,2.6,0.1,5.2,0.1,7.9l0.1,12.6C64.7,34.2,64.7,34.9,64.8,35.5z"/>
<path class="st2" d="M62.9,82.6c0.2-1,0.5-2,0.6-3c0.2-2,0.4-4.1,0.6-6.1h0.1h0.1c0.1,2.5,0.4,5.1,1.1,7.5c-0.1,0.2-0.3,0.3-0.4,0.5
	c-0.6,1.6-1.1,3.1-1.6,4.7c-0.1,0.2-0.3,0.4-0.4,0.6l-0.6-2C62.3,84.9,62.9,82.6,62.9,82.6z"/>
<path class="st3" d="M62.8,86.9c0.1-0.2,0.4-0.4,0.4-0.6c0.6-1.6,1.1-3.1,1.6-4.7c0.1-0.2,0.3-0.4,0.4-0.5l1,2.1
	c-0.2,0.3-0.5,0.5-0.6,0.8l-1.8,5.4c-0.1,0.2-0.3,0.4-0.5,0.6L62.8,86.9z"/>
<path class="st4" d="M63.4,89.9c0.2-0.2,0.4-0.3,0.5-0.6l1.8-5.4c0.1-0.3,0.4-0.5,0.6-0.8l0.9,0.8c-0.4,0.4-0.7,1-0.5,1.6l-0.3,0.9
	c-0.1,0.2-0.3,0.3-0.4,0.5c-0.6,1.8-1.3,3.7-1.9,5.5c-0.1,0.2-0.3,0.4-0.5,0.6C63.6,93.1,63.4,89.9,63.4,89.9z"/>
<path class="st5" d="M63.6,93.1c0.2-0.2,0.4-0.4,0.5-0.6c0.6-1.8,1.3-3.7,1.9-5.5c0.1-0.2,0.2-0.3,0.4-0.5L66,90.7
	c-0.1,0.1-0.3,0.2-0.3,0.4l-1.3,3.7c-0.1,0.3-0.3,0.5-0.4,0.7c-0.1-0.2-0.3-0.3-0.3-0.5C63.6,94.4,63.6,93.7,63.6,93.1z"/>
<path class="st6" d="M64,95.5c0.1-0.2,0.3-0.5,0.4-0.7l1.3-3.7c0.1-0.1,0.2-0.2,0.3-0.4v2.8l-0.9,2.4L64,95.5z"/>
<path class="st7" d="M65.1,95.9l0.9-2.4l0.2,2.8L65.1,95.9z"/>
<path class="st5" d="M66.6,85.6c-0.1-0.6,0.1-1.2,0.5-1.6l0.3,0.2C67.5,84.1,66.6,85.6,66.6,85.6z"/>
<path class="st8" d="M64.2,73.5L64.2,73.5L64.2,73.5v-0.4V73.5z"/>
</svg>
